<?xml version="1.0" standalone="no"?>
<!DOCTYPE svg PUBLIC "-//W3C//DTD SVG 20010904//EN"
 "http://www.w3.org/TR/2001/REC-SVG-20010904/DTD/svg10.dtd">
<svg version="1.0" xmlns="http://www.w3.org/2000/svg"
 width="1000.000000pt" height="999.000000pt" viewBox="0 0 1000.000000 999.000000"
 preserveAspectRatio="xMidYMid meet">

<g transform="translate(0.000000,999.000000) scale(0.100000,-0.100000)"
fill="#000000" stroke="none">
<path d="M4655 9973 c-156 -13 -362 -38 -490 -59 -1368 -231 -2576 -1022
-3339 -2187 -532 -811 -816 -1763 -816 -2732 0 -1485 659 -2885 1807 -3842
746 -621 1641 -1000 2643 -1119 183 -22 706 -30 909 -15 1447 110 2753 826
3627 1988 316 421 584 936 749 1443 330 1015 325 2110 -15 3130 -293 880 -821
1651 -1545 2255 -776 648 -1730 1040 -2755 1130 -148 13 -652 19 -775 8z m855
-167 c174 -20 394 -56 551 -91 1425 -321 2637 -1278 3279 -2590 274 -560 422
-1095 481 -1735 16 -174 16 -616 0 -790 -59 -640 -207 -1175 -481 -1735 -376
-768 -950 -1422 -1670 -1902 -646 -430 -1366 -688 -2172 -780 -216 -24 -780
-24 -996 0 -1043 118 -1941 516 -2720 1203 -626 554 -1109 1290 -1377 2099
-353 1067 -315 2264 106 3312 74 185 233 504 337 678 785 1309 2144 2177 3649
2330 229 23 229 23 558 20 200 -2 361 -9 455 -19z"/>
<path d="M4655 9774 c-343 -34 -542 -66 -800 -129 -620 -151 -1214 -432 -1730
-819 -241 -180 -612 -531 -794 -751 -932 -1125 -1301 -2543 -1036 -3981 128
-691 439 -1395 870 -1968 135 -180 240 -301 410 -474 401 -410 786 -691 1290
-942 517 -258 1002 -402 1605 -477 210 -26 851 -26 1060 0 902 112 1686 428
2381 958 329 251 668 594 924 935 995 1323 1230 3085 619 4632 -393 995 -1116
1834 -2049 2380 -556 325 -1175 530 -1865 618 -119 15 -778 28 -885 18z m545
-2488 c397 -46 652 -132 705 -236 6 -14 17 -61 24 -105 7 -44 14 -92 17 -106
l5 -26 137 -6 c213 -10 325 -46 395 -127 50 -58 61 -109 54 -243 -16 -305
-134 -575 -343 -782 -126 -125 -266 -206 -416 -241 l-77 -18 -77 -132 c-112
-193 -167 -263 -234 -296 -133 -67 -362 -101 -675 -101 -244 0 -406 17 -565
59 -141 37 -171 59 -262 194 -203 301 -334 634 -400 1016 -19 110 -22 167 -22
384 -1 364 26 529 97 583 122 93 410 163 807 197 156 13 671 4 830 -14z
m-2832 -2859 c2 -12 -7 -22 -30 -31 -44 -19 -63 -42 -77 -91 -13 -45 -28 -463
-18 -489 6 -15 12 -14 49 12 154 107 503 431 527 490 17 41 6 56 -59 75 -34
10 -45 18 -45 32 0 19 9 20 233 23 205 2 233 0 239 -14 8 -22 -13 -39 -73 -58
-29 -9 -79 -36 -112 -59 -93 -66 -592 -488 -592 -502 0 -12 480 -493 576 -577
27 -24 66 -53 85 -65 34 -21 40 -23 117 -43 30 -8 42 -16 42 -29 0 -11 -7 -22
-16 -25 -9 -3 -83 -6 -165 -6 l-150 0 -51 58 c-102 112 -564 572 -575 572 -27
0 -30 -40 -24 -250 8 -230 14 -257 62 -293 14 -10 50 -22 79 -25 57 -8 89 -34
60 -52 -8 -5 -125 -8 -260 -7 -229 2 -245 3 -245 20 0 13 17 25 55 40 85 34
83 18 83 633 0 561 0 557 -53 596 -14 10 -47 22 -73 27 -59 11 -75 24 -57 46
11 13 44 15 239 13 207 -3 226 -4 229 -21z m2209 -498 c6 -6 9 -35 5 -75 -2
-35 -2 -64 1 -64 3 0 25 16 49 37 75 63 141 87 238 88 105 0 172 -21 232 -74
81 -72 128 -188 128 -321 0 -91 -17 -158 -60 -238 -89 -167 -222 -242 -404
-228 -71 5 -103 15 -198 64 -5 2 -8 -60 -8 -138 0 -119 3 -147 19 -178 22 -43
55 -62 110 -62 48 0 80 -22 63 -43 -10 -12 -50 -14 -229 -13 -199 1 -218 3
-221 19 -3 12 9 22 41 36 72 31 72 28 72 552 0 434 -1 458 -19 478 -10 11 -35
23 -55 27 -83 13 -76 31 27 65 37 12 94 35 127 51 68 32 67 32 82 17z m1060 0
c6 -6 9 -35 5 -75 -2 -35 -1 -64 3 -64 4 0 26 16 48 36 68 62 139 88 237 89
146 0 243 -52 304 -165 102 -188 65 -429 -90 -586 -85 -86 -144 -108 -284
-108 -108 0 -112 1 -232 62 -5 2 -8 -60 -8 -138 0 -127 2 -146 21 -180 25 -44
54 -60 108 -60 48 0 80 -22 63 -43 -10 -12 -50 -14 -229 -13 -199 1 -218 3
-221 19 -3 12 9 22 41 36 72 31 72 28 72 552 0 434 -1 458 -19 478 -10 11 -35
23 -55 27 -83 13 -76 31 27 65 37 12 94 35 127 51 68 32 67 32 82 17z m-1798
-34 c137 -36 240 -117 293 -231 62 -132 47 -322 -34 -435 -128 -178 -400 -248
-603 -155 -163 75 -262 269 -234 460 32 226 207 375 439 376 47 0 109 -7 139
-15z m3164 -18 c31 -16 73 -47 93 -70 40 -47 88 -136 98 -183 13 -57 4 -59
-312 -62 l-285 -4 6 -75 c7 -99 48 -184 118 -247 99 -89 230 -101 373 -33 43
20 84 37 92 37 50 0 -55 -119 -144 -164 -156 -79 -368 -47 -492 74 -75 73
-109 167 -110 295 0 215 118 400 290 456 14 5 68 7 120 6 81 -2 104 -7 153
-30z m915 -7 c69 -37 108 -79 152 -167 34 -67 39 -117 13 -129 -10 -5 -146
-10 -302 -12 l-283 -3 6 -57 c11 -89 32 -153 68 -203 70 -98 145 -139 258
-139 65 0 86 5 155 36 44 20 89 37 100 38 35 2 18 -35 -38 -87 -100 -92 -224
-130 -356 -110 -142 22 -246 95 -304 212 -31 64 -32 68 -32 201 1 116 4 143
23 191 48 120 142 219 241 253 33 11 74 15 141 13 86 -3 101 -6 158 -37z"/>
<path d="M4360 7189 c-252 -17 -488 -58 -590 -101 -189 -81 -42 -170 371 -223
559 -71 1424 -10 1569 111 54 46 32 80 -80 121 -219 82 -801 123 -1270 92z"/>
<path d="M6000 6482 c0 -199 -49 -505 -114 -715 l-15 -48 30 18 c62 37 170
147 225 229 97 146 152 313 157 476 l2 83 -47 11 c-25 7 -89 15 -142 19 l-96
7 0 -80z"/>
<path d="M4740 3809 c-59 -12 -129 -56 -155 -99 -18 -31 -20 -55 -24 -214 -3
-204 3 -238 55 -296 97 -108 329 -111 409 -6 86 113 99 296 31 442 -62 133
-181 198 -316 173z"/>
<path d="M5800 3809 c-59 -12 -129 -56 -155 -99 -18 -31 -20 -55 -24 -214 -3
-204 3 -238 55 -296 97 -108 329 -111 409 -6 90 118 100 310 24 459 -62 120
-180 180 -309 156z"/>
<path d="M3562 3829 c-56 -28 -109 -92 -127 -151 -51 -172 -16 -354 91 -469
73 -77 122 -102 213 -107 68 -3 82 -1 131 25 61 31 113 91 130 151 6 20 14 73
17 117 9 138 -34 269 -120 362 -61 66 -106 86 -207 90 -72 4 -91 1 -128 -18z"/>
<path d="M6734 3846 c-17 -8 -41 -24 -54 -37 -32 -34 -70 -118 -70 -156 l0
-33 103 0 c56 0 146 3 201 7 l98 6 -5 39 c-7 51 -49 121 -93 155 -43 32 -130
42 -180 19z"/>
<path d="M7630 3838 c-57 -29 -101 -98 -108 -170 l-5 -51 193 6 c107 4 198 11
204 17 13 13 -6 74 -44 133 -52 83 -151 109 -240 65z"/>
</g>
</svg>
